<svg t="1718769107877" class="icon" viewBox="0 0 1024 1024" version="1.1" xmlns="http://www.w3.org/2000/svg" p-id="5360" width="200" height="200"><path d="M426.666667 682.666667h170.666666a42.666667 42.666667 0 0 1 4.992 85.034666L597.333333 768h-170.666666a42.666667 42.666667 0 0 1-4.992-85.034667L426.666667 682.666667h170.666666-170.666666z m-85.333334-213.333334h341.333334a42.666667 42.666667 0 0 1 4.992 85.034667L682.666667 554.666667H341.333333a42.666667 42.666667 0 0 1-4.992-85.034667L341.333333 469.333333h341.333334-341.333334zM213.333333 256h597.333334a42.666667 42.666667 0 0 1 4.992 85.034667L810.666667 341.333333H213.333333a42.666667 42.666667 0 0 1-4.992-85.034666L213.333333 256h597.333334H213.333333z" fill="#212121" p-id="5361"></path></svg>