<svg t="1718768887913" class="icon" viewBox="0 0 1024 1024" version="1.1" xmlns="http://www.w3.org/2000/svg" p-id="2316" width="200" height="200"><path d="M600.3712 524.8c34.7136 20.3264 74.24 33.4336 116.4288 37.2224V563.2a38.4 38.4 0 0 1-38.4 38.4h-435.2a38.4 38.4 0 0 1 0-76.8h357.1712zM461.9264 307.2c2.4576 26.88 8.6528 52.6336 18.0736 76.8H140.8a38.4 38.4 0 0 1 0-76.8h321.1264zM614.4 780.8a38.4 38.4 0 0 0-38.4-38.4h-230.4a38.4 38.4 0 0 0 0 76.8h230.4a38.4 38.4 0 0 0 38.4-38.4zM742.4 512a230.4 230.4 0 1 0 0-460.8 230.4 230.4 0 0 0 0 460.8z m94.9248-325.3248a25.6 25.6 0 0 1 0 36.2496L778.5984 281.6l58.7264 58.6752a25.6 25.6 0 0 1-36.2496 36.2496L742.4 317.7984l-58.6752 58.7264a25.6 25.6 0 0 1-36.2496-36.2496L706.2016 281.6l-58.7264-58.6752a25.6 25.6 0 0 1 36.2496-36.2496L742.4 245.4016l58.6752-58.7264a25.6 25.6 0 0 1 36.2496 0z" p-id="2317"></path></svg>